<svg xmlns="http://www.w3.org/2000/svg" version="1.1" xmlns:xlink="http://www.w3.org/1999/xlink" xmlns:svgjs="http://svgjs.dev/svgjs" width="1500" height="1500" viewBox="0 0 1500 1500"><rect width="1500" height="1500" fill="#000000"></rect><g transform="matrix(0.6666666666666666,0,0,0.6666666666666666,249.39393939393943,476.85206150018917)"><svg viewBox="0 0 396 216" data-background-color="#f8f6f4" preserveAspectRatio="xMidYMid meet" height="818" width="1500" xmlns="http://www.w3.org/2000/svg" xmlns:xlink="http://www.w3.org/1999/xlink"><g id="tight-bounds" transform="matrix(1,0,0,1,0.2400000000000091,0.1906260072600361)"><svg viewBox="0 0 395.52 215.61874798547993" height="215.61874798547993" width="395.52"><g><svg viewBox="0 0 395.52 215.61874798547993" height="215.61874798547993" width="395.52"><g><svg viewBox="0 0 395.52 215.61874798547993" height="215.61874798547993" width="395.52"><g id="textblocktransform"><svg viewBox="0 0 395.52 215.61874798547993" height="215.61874798547993" width="395.52" id="textblock"><g><rect width="163.310208" height="7.70437478375424" y="205.54895398902283" x="232.209792" fill="#ffffff" data-fill-palette-color="tertiary"></rect></g><g><svg viewBox="0 0 395.52 183.01501439999998" height="183.01501439999998" width="395.52"><g transform="matrix(1,0,0,1,0,0)"><svg width="395.52" viewBox="0.8100000000000009 -40.43 195.31000000000006 87.38" height="183.01501439999998" data-palette-color="#edc317"><svg></svg><svg></svg><g class="wordmark-text-0" data-fill-palette-color="primary" id="text-0"><path d="M27.15-11.87h-7.42l0.7-1.75h6.01zM28.56-8.35h-10.2l0.68-1.76h8.77zM29.93-4.83h-12.94l0.69-1.76h11.52zM17.75-38.06l-15.04 38.06h-1.9l15.99-40.43h1.9l15.97 40.43h-1.88zM4.59 0l13.38-33.89 1 2.25-12.5 31.64zM8.37 0l11.55-29.25 0.93 2.42-10.57 26.83zM12.16 0l9.62-24.41 0.93 2.46-8.67 21.95zM30.03-40.43l15.99 40.43h-1.9l-15.97-40.43zM24.37-40.43h1.88l15.99 40.43h-1.88zM20.58-40.43h1.88l15.99 40.43h-1.9zM49.1 0v-35.16h1.75v35.16zM59.64 0v-35.16h1.76v26.37h12.97v1.76h-12.97v1.76h12.97v1.75h-12.97v1.76h12.97v1.76zM56.13 0v-35.16h1.76v35.16zM52.61 0v-35.16h1.76v35.16zM91.89-14.79v-1.76h7.45c1.467 0 2.713-0.44 3.74-1.32 1.02-0.88 1.53-2.117 1.53-3.71v0c0-1.24-0.537-2.347-1.61-3.32-1.073-0.98-2.293-1.47-3.66-1.47v0h-12.3v26.37h-1.76v-28.13h14.06c1.873 0 3.513 0.66 4.92 1.98 1.407 1.32 2.11 2.843 2.11 4.57v0c0 2.067-0.683 3.713-2.05 4.94-1.367 1.233-3.027 1.85-4.98 1.85v0zM91.89-11.28v-1.76h7.45c2.407 0 4.473-0.797 6.2-2.39 1.727-1.593 2.59-3.643 2.59-6.15v0c0-2.2-0.88-4.133-2.64-5.8-1.753-1.667-3.803-2.5-6.15-2.5v0h-15.82v29.88h-1.76v-31.64h17.58c2.833 0 5.3 1.003 7.4 3.01 2.1 2.013 3.15 4.363 3.15 7.05v0c0 2.927-1.04 5.377-3.12 7.35-2.073 1.967-4.55 2.95-7.43 2.95v0zM91.89-7.76v-1.76h7.45c2.2 0 4.24-0.52 6.12-1.56 1.88-1.047 3.38-2.497 4.5-4.35 1.127-1.853 1.69-3.903 1.69-6.15v0c0-2.067-0.56-4.013-1.68-5.84-1.113-1.82-2.617-3.27-4.51-4.35-1.9-1.087-3.94-1.63-6.12-1.63v0h-19.34v33.4h-1.75v-35.16h21.09c1.853 0 3.647 0.367 5.38 1.1 1.733 0.733 3.237 1.713 4.51 2.94 1.267 1.233 2.28 2.683 3.04 4.35 0.753 1.667 1.13 3.397 1.13 5.19v0c0 2.1-0.373 4.027-1.12 5.78-0.747 1.76-1.763 3.223-3.05 4.39-1.287 1.16-2.78 2.057-4.48 2.69-1.7 0.64-3.503 0.96-5.41 0.96v0zM90.55-22.85v22.85h-1.76v-24.61h10.55c0.96 0 1.787 0.297 2.48 0.89 0.693 0.593 1.04 1.307 1.04 2.14v0c0 2.18-1.173 3.27-3.52 3.27v0h-7.45v-1.76h7.45c1.173 0 1.76-0.503 1.76-1.51v0c0-0.36-0.17-0.663-0.51-0.91-0.347-0.24-0.763-0.36-1.25-0.36v0zM152.51 0v-35.16h1.76v35.16zM117.33 0v-35.16h1.76v35.16zM149 0v-35.16h1.76v35.16zM145.48 0v-35.16h1.76v35.16zM141.97-22.85v-12.31h1.76v35.16h-1.76v-14.06h-12.33v14.06h-1.76v-35.16h1.76v12.31zM124.37 0v-35.16h1.75v35.16zM120.85 0v-35.16h1.76v35.16zM129.64-15.82h12.33v-1.76h-12.33zM129.64-19.34h12.33v-1.75h-12.33zM183.81 0v-17.33c0-2.087-0.643-3.7-1.93-4.84-1.28-1.14-2.98-1.71-5.1-1.71v0c-1.787 0-3.323 0.62-4.61 1.86-1.287 1.233-1.93 2.713-1.93 4.44v0c0 0.98 0.13 1.857 0.39 2.63 0.26 0.773 0.613 1.417 1.06 1.93 0.447 0.507 0.98 0.927 1.6 1.26 0.62 0.34 1.267 0.58 1.94 0.72 0.68 0.147 1.4 0.22 2.16 0.22v0c1.86 0 3.553-0.453 5.08-1.36v0 1.76c-1.58 0.827-3.28 1.24-5.1 1.24v0c-1.173 0-2.277-0.16-3.31-0.48-1.033-0.313-1.973-0.793-2.82-1.44-0.847-0.64-1.517-1.517-2.01-2.63-0.5-1.12-0.75-2.403-0.75-3.85v0c0-2.247 0.79-4.15 2.37-5.71 1.58-1.56 3.557-2.34 5.93-2.34v0c2.62 0 4.74 0.733 6.36 2.2 1.62 1.473 2.43 3.507 2.43 6.1v0 17.33zM189.09-17.33v0 17.33h-1.76v-17.33c0-3.08-0.983-5.527-2.95-7.34-1.973-1.813-4.507-2.72-7.6-2.72v0c-2.86 0-5.253 0.95-7.18 2.85-1.92 1.907-2.88 4.227-2.88 6.96v0c0 1.66 0.29 3.15 0.87 4.47 0.58 1.32 1.367 2.377 2.36 3.17 0.993 0.8 2.103 1.407 3.33 1.82 1.227 0.413 2.523 0.62 3.89 0.62v0c1.86 0 3.627-0.43 5.3-1.29v0 1.86c-1.76 0.733-3.533 1.1-5.32 1.1v0c-1.613 0-3.143-0.25-4.59-0.75-1.447-0.493-2.74-1.217-3.88-2.17-1.14-0.953-2.043-2.19-2.71-3.71-0.667-1.527-1-3.233-1-5.12v0c0-3.207 1.133-5.937 3.4-8.19 2.273-2.253 5.077-3.38 8.41-3.38v0c2.347 0 4.447 0.477 6.3 1.43 1.853 0.953 3.32 2.333 4.4 4.14 1.073 1.807 1.61 3.89 1.61 6.25zM192.6-17.33v0 17.33h-1.76v-17.33c0-2.687-0.613-5.07-1.84-7.15-1.227-2.073-2.907-3.663-5.04-4.77-2.133-1.107-4.527-1.66-7.18-1.66v0c-2.52 0-4.823 0.6-6.91 1.8-2.08 1.193-3.71 2.807-4.89 4.84-1.18 2.033-1.77 4.263-1.77 6.69v0c0 2.087 0.383 3.987 1.15 5.7 0.76 1.72 1.787 3.133 3.08 4.24 1.293 1.107 2.767 1.963 4.42 2.57 1.653 0.613 3.383 0.92 5.19 0.92v0c1.84 0 3.647-0.383 5.42-1.15v0 1.78c-1.853 0.7-3.677 1.05-5.47 1.05v0c-2.813 0-5.4-0.633-7.76-1.9-2.36-1.267-4.25-3.067-5.67-5.4-1.413-2.327-2.12-4.93-2.12-7.81v0c0-2.047 0.393-4 1.18-5.86 0.793-1.853 1.863-3.457 3.21-4.81 1.353-1.347 2.983-2.42 4.89-3.22 1.9-0.8 3.917-1.2 6.05-1.2v0c2.98 0 5.67 0.637 8.07 1.91 2.4 1.267 4.293 3.073 5.68 5.42 1.38 2.34 2.07 5.01 2.07 8.01zM196.12-17.33v0 17.33h-1.76v-17.33c0-3.32-0.773-6.287-2.32-8.9-1.547-2.613-3.653-4.633-6.32-6.06-2.673-1.42-5.653-2.13-8.94-2.13v0c-3.153 0-6.04 0.757-8.66 2.27-2.627 1.513-4.687 3.56-6.18 6.14-1.5 2.58-2.25 5.39-2.25 8.43v0c0 2 0.323 3.9 0.97 5.7 0.64 1.8 1.517 3.37 2.63 4.71 1.12 1.347 2.407 2.507 3.86 3.48 1.46 0.98 3.03 1.723 4.71 2.23 1.687 0.5 3.4 0.75 5.14 0.75v0c1.92 0 3.743-0.367 5.47-1.1v0 1.81c-1.807 0.633-3.663 0.95-5.57 0.95v0c-1.967 0-3.883-0.277-5.75-0.83-1.86-0.553-3.583-1.37-5.17-2.45-1.587-1.087-2.983-2.363-4.19-3.83-1.2-1.473-2.143-3.197-2.83-5.17-0.687-1.967-1.03-4.05-1.03-6.25v0c0-2.52 0.477-4.923 1.43-7.21 0.953-2.287 2.257-4.267 3.91-5.94 1.653-1.667 3.653-2.99 6-3.97 2.353-0.987 4.857-1.48 7.51-1.48v0c2.7 0 5.24 0.457 7.62 1.37 2.373 0.907 4.423 2.17 6.15 3.79 1.727 1.62 3.087 3.61 4.08 5.97 0.993 2.36 1.49 4.933 1.49 7.72z" fill="#ffffff" fill-rule="nonzero" stroke="none" stroke-width="1" stroke-linecap="butt" stroke-linejoin="miter" stroke-miterlimit="10" stroke-dasharray="" stroke-dashoffset="0" font-family="none" font-weight="none" font-size="none" text-anchor="none" style="mix-blend-mode: normal" data-fill-palette-color="primary" opacity="1"></path><path d="M27.86 6.52h-26.37v-1.76h26.37zM27.86 10.03h-26.37v-1.75h26.37zM8.52 13.55h-7.03v-1.76h26.37v1.76h-7.03v31.64h-1.76v-31.64h-1.76v31.64h-1.76v-31.64h-1.76v31.64h-1.75v-31.64h-1.76v31.64h-1.76zM45.28 22.64c-1.38 1.38-2.07 3.037-2.07 4.97 0 1.94 0.69 3.597 2.07 4.97 1.373 1.373 3.027 2.06 4.96 2.06 1.94 0 3.597-0.687 4.97-2.06 1.38-1.373 2.07-3.03 2.07-4.97 0-1.933-0.69-3.59-2.07-4.97-1.373-1.373-3.03-2.06-4.97-2.06-1.933 0-3.587 0.687-4.96 2.06zM44.03 33.83c-1.713-1.72-2.57-3.793-2.57-6.22 0-2.427 0.857-4.497 2.57-6.21 1.72-1.72 3.79-2.58 6.21-2.58 2.427 0 4.5 0.86 6.22 2.58 1.713 1.713 2.57 3.783 2.57 6.21 0 2.427-0.857 4.5-2.57 6.22-1.72 1.713-3.793 2.57-6.22 2.57-2.42 0-4.49-0.857-6.21-2.57zM42.79 20.17c-2.06 2.067-3.09 4.547-3.09 7.44 0 2.9 1.03 5.383 3.09 7.45 2.053 2.067 4.537 3.1 7.45 3.1 2.913 0 5.4-1.033 7.46-3.1 2.06-2.067 3.09-4.55 3.09-7.45 0-2.893-1.03-5.373-3.09-7.44-2.06-2.073-4.547-3.11-7.46-3.11-2.913 0-5.397 1.037-7.45 3.11zM39.59 33.79c-1.1-1.887-1.65-3.947-1.65-6.18 0-2.227 0.55-4.283 1.65-6.17 1.1-1.893 2.593-3.387 4.48-4.48 1.887-1.1 3.943-1.65 6.17-1.65 2.233 0 4.293 0.55 6.18 1.65 1.887 1.093 3.38 2.587 4.48 4.48 1.1 1.887 1.65 3.943 1.65 6.17 0 2.233-0.55 4.293-1.65 6.18-1.1 1.887-2.593 3.38-4.48 4.48-1.887 1.1-3.947 1.65-6.18 1.65-2.227 0-4.283-0.55-6.17-1.65-1.887-1.1-3.38-2.593-4.48-4.48zM37.29 22.16c-0.74 1.733-1.11 3.55-1.11 5.45 0 1.907 0.37 3.727 1.11 5.46 0.74 1.733 1.743 3.23 3.01 4.49 1.26 1.26 2.757 2.26 4.49 3 1.733 0.74 3.55 1.11 5.45 1.11 1.907 0 3.727-0.37 5.46-1.11 1.733-0.74 3.23-1.74 4.49-3 1.26-1.26 2.263-2.757 3.01-4.49 0.74-1.733 1.11-3.553 1.11-5.46 0-1.9-0.37-3.717-1.11-5.45-0.747-1.733-1.75-3.233-3.01-4.5-1.26-1.26-2.757-2.26-4.49-3-1.733-0.74-3.553-1.11-5.46-1.11-1.9 0-3.717 0.37-5.45 1.11-1.733 0.74-3.23 1.74-4.49 3-1.267 1.267-2.27 2.767-3.01 4.5zM35.68 33.76c-0.84-1.953-1.26-4.003-1.26-6.15 0-2.147 0.42-4.197 1.26-6.15 0.84-1.953 1.963-3.633 3.37-5.04 1.407-1.407 3.087-2.53 5.04-3.37 1.953-0.84 4.003-1.26 6.15-1.26 2.153 0 4.207 0.42 6.16 1.26 1.953 0.84 3.633 1.963 5.04 3.37 1.407 1.407 2.53 3.087 3.37 5.04 0.833 1.953 1.25 4.003 1.25 6.15 0 2.147-0.417 4.197-1.25 6.15-0.84 1.953-1.963 3.637-3.37 5.05-1.407 1.407-3.087 2.527-5.04 3.36-1.953 0.84-4.007 1.26-6.16 1.26-2.147 0-4.197-0.42-6.15-1.26-1.953-0.833-3.633-1.953-5.04-3.36-1.407-1.413-2.53-3.097-3.37-5.05zM34.06 20.79c-0.927 2.173-1.39 4.447-1.39 6.82 0 2.38 0.463 4.657 1.39 6.83 0.927 2.167 2.177 4.037 3.75 5.61 1.567 1.573 3.437 2.823 5.61 3.75 2.173 0.927 4.447 1.39 6.82 1.39 2.38 0 4.657-0.463 6.83-1.39 2.173-0.927 4.043-2.177 5.61-3.75 1.573-1.573 2.823-3.443 3.75-5.61 0.927-2.173 1.39-4.45 1.39-6.83 0-2.373-0.463-4.647-1.39-6.82-0.927-2.173-2.177-4.047-3.75-5.62-1.567-1.567-3.437-2.813-5.61-3.74-2.173-0.933-4.45-1.4-6.83-1.4-2.373 0-4.647 0.467-6.82 1.4-2.173 0.927-4.043 2.173-5.61 3.74-1.573 1.573-2.823 3.447-3.75 5.62zM32.45 35.12c-1.027-2.387-1.54-4.89-1.54-7.51 0-2.62 0.513-5.123 1.54-7.51 1.02-2.38 2.393-4.433 4.12-6.16 1.727-1.727 3.783-3.103 6.17-4.13 2.38-1.02 4.88-1.53 7.5-1.53 2.62 0 5.123 0.51 7.51 1.53 2.387 1.027 4.443 2.403 6.17 4.13 1.72 1.727 3.093 3.78 4.12 6.16 1.027 2.387 1.54 4.89 1.54 7.51 0 2.62-0.513 5.123-1.54 7.51-1.027 2.387-2.4 4.44-4.12 6.16-1.727 1.727-3.783 3.103-6.17 4.13-2.387 1.027-4.89 1.54-7.51 1.54-2.62 0-5.12-0.513-7.5-1.54-2.387-1.027-4.443-2.403-6.17-4.13-1.727-1.72-3.1-3.773-4.12-6.16zM93.8 34.64h-9.74v-14.06c0 0 3.247 0 9.74 0v0c1.807 0 3.357 0.683 4.65 2.05 1.293 1.367 1.94 3.01 1.94 4.93v0c0 1.987-0.643 3.663-1.93 5.03-1.287 1.367-2.84 2.05-4.66 2.05zM85.82 22.34v10.55h7.98c1.32 0 2.447-0.513 3.38-1.54 0.933-1.027 1.4-2.29 1.4-3.79v0c0-1.433-0.467-2.66-1.4-3.68-0.933-1.027-2.06-1.54-3.38-1.54v0zM82.3 18.82v17.58h11.5c2.313 0 4.29-0.857 5.93-2.57 1.647-1.72 2.47-3.81 2.47-6.27v0c0-2.407-0.827-4.463-2.48-6.17-1.653-1.713-3.627-2.57-5.92-2.57v0zM93.8 38.16h-13.26v-21.1h13.26c2.78 0 5.177 1.03 7.19 3.09 2.007 2.06 3.01 4.53 3.01 7.41v0c0 2.947-1 5.45-3 7.51-2 2.06-4.4 3.09-7.2 3.09zM78.78 15.31v24.61h15.02c2.147 0 4.14-0.547 5.98-1.64 1.84-1.087 3.303-2.583 4.39-4.49 1.093-1.907 1.64-3.983 1.64-6.23v0c0-2.193-0.547-4.233-1.64-6.12-1.087-1.893-2.553-3.387-4.4-4.48-1.847-1.1-3.837-1.65-5.97-1.65v0zM93.8 41.67h-16.77v-28.12h16.77c2.46 0 4.75 0.627 6.87 1.88 2.127 1.253 3.817 2.957 5.07 5.11 1.253 2.16 1.88 4.5 1.88 7.02v0c0 2.56-0.627 4.927-1.88 7.1-1.253 2.167-2.943 3.877-5.07 5.13-2.12 1.253-4.41 1.88-6.87 1.88zM75.27 11.79v31.64h18.53c2.78 0 5.367-0.703 7.76-2.11 2.393-1.407 4.303-3.33 5.73-5.77 1.42-2.447 2.13-5.11 2.13-7.99v0c0-2.833-0.71-5.463-2.13-7.89-1.427-2.433-3.34-4.357-5.74-5.77-2.4-1.407-4.983-2.11-7.75-2.11v0zM93.8 45.19v0h-20.29v-35.16h20.29c3.093 0 5.977 0.787 8.65 2.36 2.68 1.573 4.813 3.707 6.4 6.4 1.587 2.693 2.38 5.617 2.38 8.77v0c0 2.393-0.467 4.68-1.4 6.86-0.94 2.18-2.193 4.057-3.76 5.63-1.573 1.573-3.433 2.823-5.58 3.75-2.147 0.927-4.377 1.39-6.69 1.39zM128.6 22.64c-1.373 1.38-2.06 3.037-2.06 4.97 0 1.94 0.687 3.597 2.06 4.97 1.373 1.373 3.03 2.06 4.97 2.06 1.933 0 3.59-0.687 4.97-2.06 1.373-1.373 2.06-3.03 2.06-4.97 0-1.933-0.687-3.59-2.06-4.97-1.38-1.373-3.037-2.06-4.97-2.06-1.94 0-3.597 0.687-4.97 2.06zM127.36 33.83c-1.72-1.72-2.58-3.793-2.58-6.22 0-2.427 0.86-4.497 2.58-6.21 1.713-1.72 3.783-2.58 6.21-2.58 2.427 0 4.497 0.86 6.21 2.58 1.72 1.713 2.58 3.783 2.58 6.21 0 2.427-0.86 4.5-2.58 6.22-1.713 1.713-3.783 2.57-6.21 2.57-2.427 0-4.497-0.857-6.21-2.57zM126.11 20.17c-2.06 2.067-3.09 4.547-3.09 7.44 0 2.9 1.03 5.383 3.09 7.45 2.06 2.067 4.547 3.1 7.46 3.1 2.913 0 5.4-1.033 7.46-3.1 2.06-2.067 3.09-4.55 3.09-7.45 0-2.893-1.03-5.373-3.09-7.44-2.06-2.073-4.547-3.11-7.46-3.11-2.913 0-5.4 1.037-7.46 3.11zM122.91 33.79c-1.1-1.887-1.65-3.947-1.65-6.18 0-2.227 0.55-4.283 1.65-6.17 1.1-1.893 2.593-3.387 4.48-4.48 1.887-1.1 3.947-1.65 6.18-1.65 2.227 0 4.287 0.55 6.18 1.65 1.887 1.093 3.38 2.587 4.48 4.48 1.093 1.887 1.64 3.943 1.64 6.17 0 2.233-0.547 4.293-1.64 6.18-1.1 1.887-2.593 3.38-4.48 4.48-1.893 1.1-3.953 1.65-6.18 1.65-2.233 0-4.293-0.55-6.18-1.65-1.887-1.1-3.38-2.593-4.48-4.48zM120.62 22.16c-0.74 1.733-1.11 3.55-1.11 5.45 0 1.907 0.37 3.727 1.11 5.46 0.74 1.733 1.74 3.23 3 4.49 1.26 1.26 2.757 2.26 4.49 3 1.733 0.74 3.553 1.11 5.46 1.11 1.907 0 3.727-0.37 5.46-1.11 1.733-0.74 3.23-1.74 4.49-3 1.26-1.26 2.26-2.757 3-4.49 0.74-1.733 1.11-3.553 1.11-5.46 0-1.9-0.37-3.717-1.11-5.45-0.74-1.733-1.74-3.233-3-4.5-1.26-1.26-2.757-2.26-4.49-3-1.733-0.74-3.553-1.11-5.46-1.11-1.907 0-3.727 0.37-5.46 1.11-1.733 0.74-3.23 1.74-4.49 3-1.26 1.267-2.26 2.767-3 4.5zM119.01 33.76c-0.84-1.953-1.26-4.003-1.26-6.15 0-2.147 0.42-4.197 1.26-6.15 0.833-1.953 1.957-3.633 3.37-5.04 1.407-1.407 3.087-2.53 5.04-3.37 1.953-0.84 4.003-1.26 6.15-1.26 2.147 0 4.197 0.42 6.15 1.26 1.953 0.84 3.633 1.963 5.04 3.37 1.413 1.407 2.537 3.087 3.37 5.04 0.84 1.953 1.26 4.003 1.26 6.15 0 2.147-0.42 4.197-1.26 6.15-0.833 1.953-1.957 3.637-3.37 5.05-1.407 1.407-3.087 2.527-5.04 3.36-1.953 0.84-4.003 1.26-6.15 1.26-2.147 0-4.197-0.42-6.15-1.26-1.953-0.833-3.633-1.953-5.04-3.36-1.413-1.413-2.537-3.097-3.37-5.05zM117.38 20.79c-0.927 2.173-1.39 4.447-1.39 6.82 0 2.38 0.463 4.657 1.39 6.83 0.927 2.167 2.177 4.037 3.75 5.61 1.573 1.573 3.447 2.823 5.62 3.75 2.167 0.927 4.44 1.39 6.82 1.39 2.373 0 4.647-0.463 6.82-1.39 2.173-0.927 4.047-2.177 5.62-3.75 1.567-1.573 2.817-3.443 3.75-5.61 0.927-2.173 1.39-4.45 1.39-6.83 0-2.373-0.463-4.647-1.39-6.82-0.933-2.173-2.183-4.047-3.75-5.62-1.573-1.567-3.447-2.813-5.62-3.74-2.173-0.933-4.447-1.4-6.82-1.4-2.38 0-4.653 0.467-6.82 1.4-2.173 0.927-4.047 2.173-5.62 3.74-1.573 1.573-2.823 3.447-3.75 5.62zM115.77 35.12c-1.027-2.387-1.54-4.89-1.54-7.51 0-2.62 0.513-5.123 1.54-7.51 1.027-2.38 2.403-4.433 4.13-6.16 1.727-1.727 3.78-3.103 6.16-4.13 2.387-1.02 4.89-1.53 7.51-1.53 2.62 0 5.123 0.51 7.51 1.53 2.38 1.027 4.433 2.403 6.16 4.13 1.727 1.727 3.103 3.78 4.13 6.16 1.027 2.387 1.54 4.89 1.54 7.51 0 2.62-0.513 5.123-1.54 7.51-1.027 2.387-2.403 4.44-4.13 6.16-1.727 1.727-3.78 3.103-6.16 4.13-2.387 1.027-4.89 1.54-7.51 1.54-2.62 0-5.123-0.513-7.51-1.54-2.38-1.027-4.433-2.403-6.16-4.13-1.727-1.72-3.103-3.773-4.13-6.16z" fill="#ffffff" fill-rule="nonzero" stroke="none" stroke-width="1" stroke-linecap="butt" stroke-linejoin="miter" stroke-miterlimit="10" stroke-dasharray="" stroke-dashoffset="0" font-family="none" font-weight="none" font-size="none" text-anchor="none" style="mix-blend-mode: normal" data-fill-palette-color="accent" opacity="1"></path></g></svg></g></svg></g><g transform="matrix(1,0,0,1,0,203.18353477632)"><svg viewBox="0 0 232.209792 12.435213209159945" height="12.435213209159945" width="232.209792"><g transform="matrix(1,0,0,1,8,0)"><svg width="216.209792" viewBox="3 -37.7 829.36 47.71" height="12.435213209159945" data-palette-color="#edc317"><path d="M37.99-35.01L37.99-10.01Q37.99-7.84 37.17-5.92 36.35-4 34.92-2.58 33.5-1.15 31.58-0.33 29.66 0.49 27.49 0.49L27.49 0.49Q25.54 0.49 23.74-0.2 21.95-0.88 20.51-2.2L20.51-2.2Q19.07-0.88 17.26-0.2 15.45 0.49 13.5 0.49L13.5 0.49Q11.33 0.49 9.41-0.33 7.5-1.15 6.07-2.58 4.64-4 3.82-5.92 3-7.84 3-10.01L3-10.01 3-35.01 10.01-35.01 10.01-10.01Q10.01-9.28 10.28-8.63 10.55-7.98 11.02-7.51 11.5-7.03 12.13-6.76 12.77-6.49 13.5-6.49L13.5-6.49Q14.23-6.49 14.87-6.76 15.5-7.03 15.98-7.51 16.46-7.98 16.72-8.63 16.99-9.28 16.99-10.01L16.99-10.01 16.99-35.01 24-35.01 24-10.01Q24-9.28 24.27-8.63 24.54-7.98 25.01-7.51 25.49-7.03 26.12-6.76 26.76-6.49 27.49-6.49L27.49-6.49Q28.22-6.49 28.86-6.76 29.49-7.03 29.97-7.51 30.44-7.98 30.73-8.63 31.01-9.28 31.01-10.01L31.01-10.01 31.01-35.01 37.99-35.01ZM49.95-14.94L49.95 0 43.28 0 43.28-36.55 49.95-36.55 49.95-25Q51.14-25.9 52.41-26.28 53.68-26.66 55-26.66L55-26.66Q57.42-26.66 59.54-25.74 61.67-24.83 63.24-23.23 64.82-21.63 65.73-19.49 66.65-17.36 66.65-14.94L66.65-14.94 66.65 0 59.93 0 59.93-14.94 59.98-14.94Q59.98-15.97 59.59-16.88 59.2-17.8 58.52-18.48 57.83-19.17 56.93-19.56 56.03-19.95 55-19.95L55-19.95Q53.95-19.95 53.02-19.56 52.1-19.17 51.41-18.48 50.73-17.8 50.34-16.88 49.95-15.97 49.95-14.94L49.95-14.94ZM94.28-21.46L81.78-6.4Q82.17-6.27 82.56-6.24 82.95-6.2 83.34-6.2L83.34-6.2Q84.32-6.2 85.22-6.47 86.13-6.74 86.92-7.24 87.71-7.74 88.34-8.46 88.96-9.18 89.35-10.06L89.35-10.06 94.23-5.15Q93.31-3.83 92.1-2.78 90.89-1.73 89.48-1 88.08-0.27 86.53 0.11 84.98 0.49 83.34 0.49L83.34 0.49Q80.59 0.49 78.16-0.54 75.73-1.56 73.91-3.39 72.09-5.22 71.04-7.75 69.99-10.28 69.99-13.31L69.99-13.31Q69.99-16.41 71.04-18.97 72.09-21.53 73.91-23.34 75.73-25.15 78.16-26.15 80.59-27.15 83.34-27.15L83.34-27.15Q84.98-27.15 86.54-26.76 88.11-26.37 89.51-25.63 90.91-24.9 92.13-23.84 93.35-22.78 94.28-21.46L94.28-21.46ZM77.44-9.84L85.2-20.14Q84.74-20.31 84.28-20.36 83.83-20.41 83.34-20.41L83.34-20.41Q81.98-20.41 80.77-19.91 79.56-19.41 78.67-18.48 77.78-17.55 77.27-16.25 76.75-14.94 76.75-13.31L76.75-13.31Q76.75-12.94 76.79-12.48 76.83-12.01 76.91-11.54 77-11.06 77.12-10.62 77.24-10.18 77.44-9.84L77.44-9.84ZM104.29-14.4L104.29 0 97.62 0 97.62-26.15 99.24-26.15 101.43-23.05Q103.04-24.51 105.1-25.31 107.15-26.1 109.34-26.1L109.34-26.1 115.23-26.1 115.23-19.46 109.34-19.46Q108.29-19.46 107.37-19.07 106.44-18.68 105.75-17.99 105.07-17.31 104.68-16.38 104.29-15.45 104.29-14.4L104.29-14.4ZM140.74-21.46L128.24-6.4Q128.63-6.27 129.02-6.24 129.41-6.2 129.8-6.2L129.8-6.2Q130.78-6.2 131.68-6.47 132.58-6.74 133.38-7.24 134.17-7.74 134.79-8.46 135.41-9.18 135.81-10.06L135.81-10.06 140.69-5.15Q139.76-3.83 138.55-2.78 137.34-1.73 135.94-1 134.54-0.27 132.99 0.11 131.44 0.49 129.8 0.49L129.8 0.49Q127.04 0.49 124.61-0.54 122.18-1.56 120.36-3.39 118.54-5.22 117.49-7.75 116.45-10.28 116.45-13.31L116.45-13.31Q116.45-16.41 117.49-18.97 118.54-21.53 120.36-23.34 122.18-25.15 124.61-26.15 127.04-27.15 129.8-27.15L129.8-27.15Q131.44-27.15 133-26.76 134.56-26.37 135.96-25.63 137.37-24.9 138.59-23.84 139.81-22.78 140.74-21.46L140.74-21.46ZM123.89-9.84L131.66-20.14Q131.19-20.31 130.74-20.36 130.29-20.41 129.8-20.41L129.8-20.41Q128.43-20.41 127.22-19.91 126.02-19.41 125.12-18.48 124.23-17.55 123.72-16.25 123.21-14.94 123.21-13.31L123.21-13.31Q123.21-12.94 123.24-12.48 123.28-12.01 123.37-11.54 123.45-11.06 123.57-10.62 123.7-10.18 123.89-9.84L123.89-9.84ZM172.79-28L165.78-28 165.78-13.99 172.79-13.99Q174.23-13.99 175.5-14.54 176.77-15.09 177.72-16.04 178.67-16.99 179.22-18.27 179.77-19.56 179.77-21L179.77-21Q179.77-22.44 179.22-23.72 178.67-25 177.72-25.95 176.77-26.9 175.5-27.45 174.23-28 172.79-28L172.79-28ZM165.78-7.01L165.78 0 158.77 0 158.77-35.01 172.79-35.01Q174.72-35.01 176.5-34.51 178.28-34.01 179.83-33.09 181.38-32.18 182.66-30.9 183.94-29.61 184.86-28.05 185.78-26.49 186.28-24.71 186.78-22.92 186.78-21L186.78-21Q186.78-18.12 185.68-15.56 184.58-13.01 182.68-11.11 180.77-9.2 178.22-8.11 175.67-7.01 172.79-7.01L172.79-7.01 165.78-7.01ZM196.83-14.4L196.83 0 190.17 0 190.17-26.15 191.78-26.15 193.98-23.05Q195.59-24.51 197.64-25.31 199.69-26.1 201.89-26.1L201.89-26.1 207.77-26.1 207.77-19.46 201.89-19.46Q200.84-19.46 199.91-19.07 198.98-18.68 198.3-17.99 197.61-17.31 197.22-16.38 196.83-15.45 196.83-14.4L196.83-14.4ZM235.65-13.31L235.65-13.31Q235.65-10.38 234.6-7.85 233.55-5.32 231.74-3.48 229.94-1.64 227.51-0.57 225.08 0.49 222.29 0.49L222.29 0.49Q219.54 0.49 217.11-0.57 214.68-1.64 212.86-3.48 211.04-5.32 209.99-7.85 208.94-10.38 208.94-13.31L208.94-13.31Q208.94-16.28 209.99-18.82 211.04-21.36 212.86-23.21 214.68-25.05 217.11-26.1 219.54-27.15 222.29-27.15L222.29-27.15Q225.08-27.15 227.51-26.16 229.94-25.17 231.74-23.35 233.55-21.53 234.6-18.98 235.65-16.43 235.65-13.31ZM228.94-13.31L228.94-13.31Q228.94-14.92 228.41-16.22 227.89-17.53 226.98-18.47 226.08-19.41 224.87-19.91 223.66-20.41 222.29-20.41L222.29-20.41Q220.93-20.41 219.72-19.91 218.51-19.41 217.62-18.47 216.73-17.53 216.22-16.22 215.7-14.92 215.7-13.31L215.7-13.31Q215.7-11.79 216.22-10.5 216.73-9.2 217.62-8.25 218.51-7.3 219.72-6.75 220.93-6.2 222.29-6.2L222.29-6.2Q223.66-6.2 224.87-6.71 226.08-7.23 226.98-8.15 227.89-9.08 228.41-10.4 228.94-11.72 228.94-13.31ZM264.6-36.55L264.6 0 262.99 0 260.4-3.59Q259.45-2.73 258.39-1.99 257.33-1.25 256.15-0.7 254.98-0.15 253.75 0.17 252.52 0.49 251.25 0.49L251.25 0.49Q248.49 0.49 246.06-0.55 243.63-1.59 241.81-3.43 239.99-5.27 238.94-7.8 237.89-10.33 237.89-13.31L237.89-13.31Q237.89-16.26 238.94-18.8 239.99-21.34 241.81-23.19 243.63-25.05 246.06-26.1 248.49-27.15 251.25-27.15L251.25-27.15Q252.13-27.15 253.07-27 254.01-26.86 254.9-26.53 255.79-26.2 256.57-25.66 257.35-25.12 257.89-24.34L257.89-24.34 257.89-36.55 264.6-36.55ZM257.89-13.31L257.89-13.31Q257.89-14.67 257.36-15.95 256.84-17.24 255.93-18.23 255.03-19.21 253.82-19.81 252.61-20.41 251.25-20.41L251.25-20.41Q249.88-20.41 248.67-19.92 247.46-19.43 246.57-18.52 245.68-17.6 245.17-16.28 244.66-14.97 244.66-13.31L244.66-13.31Q244.66-11.87 245.17-10.57 245.68-9.28 246.57-8.3 247.46-7.32 248.67-6.76 249.88-6.2 251.25-6.2L251.25-6.2Q252.61-6.2 253.82-6.8 255.03-7.4 255.93-8.39 256.84-9.38 257.36-10.66 257.89-11.94 257.89-13.31ZM291.09 0L288.89-3.05Q288.09-2.32 287.17-1.67 286.25-1.03 285.25-0.55 284.25-0.07 283.19 0.21 282.13 0.49 281.03 0.49L281.03 0.49Q278.61 0.49 276.49-0.37 274.36-1.22 272.77-2.8 271.17-4.37 270.25-6.63 269.34-8.89 269.34-11.69L269.34-11.69 269.34-26.15 275.98-26.15 275.98-11.69Q275.98-10.38 276.38-9.34 276.78-8.3 277.47-7.59 278.15-6.88 279.06-6.52 279.98-6.15 281.03-6.15L281.03-6.15Q282.06-6.15 282.97-6.63 283.89-7.1 284.57-7.89 285.25-8.67 285.64-9.66 286.03-10.64 286.03-11.69L286.03-11.69 286.03-26.15 292.7-26.15 292.7 0 291.09 0ZM320.63-20.95L320.63-20.95 315.74-16.04Q315.38-17.07 314.74-17.88 314.11-18.7 313.31-19.26 312.52-19.82 311.59-20.12 310.67-20.41 309.69-20.41L309.69-20.41Q308.32-20.41 307.11-19.85 305.91-19.29 305.01-18.27 304.12-17.26 303.61-15.87 303.1-14.48 303.1-12.79L303.1-12.79Q303.1-11.43 303.61-10.23 304.12-9.03 305.01-8.13 305.91-7.23 307.11-6.71 308.32-6.2 309.69-6.2L309.69-6.2Q310.67-6.2 311.57-6.47 312.47-6.74 313.27-7.24 314.06-7.74 314.68-8.46 315.3-9.18 315.7-10.06L315.7-10.06 320.58-5.15Q319.65-3.83 318.44-2.78 317.23-1.73 315.83-1 314.43-0.27 312.88 0.11 311.33 0.49 309.69 0.49L309.69 0.49Q306.93 0.49 304.5-0.55 302.07-1.59 300.25-3.39 298.43-5.2 297.38-7.62 296.33-10.03 296.33-12.79L296.33-12.79Q296.33-15.8 297.38-18.41 298.43-21.02 300.25-22.96 302.07-24.9 304.5-26.03 306.93-27.15 309.69-27.15L309.69-27.15Q311.33-27.15 312.9-26.73 314.47-26.32 315.9-25.52 317.33-24.73 318.54-23.58 319.75-22.44 320.63-20.95ZM342.04 0L336.98 0Q334.56 0 332.44-0.92 330.32-1.83 328.72-3.43 327.12-5.03 326.2-7.15 325.29-9.28 325.29-11.69L325.29-11.69 325.29-19.46 322.04-19.46 322.04-26.1 325.29-26.1 325.29-36.55 331.93-36.55 331.93-26.1 342.04-26.1 342.04-19.46 331.93-19.46 331.93-11.69Q331.93-10.64 332.32-9.73 332.71-8.81 333.39-8.13 334.08-7.45 335-7.04 335.93-6.64 336.98-6.64L336.98-6.64 342.04-6.64 342.04 0ZM353.63-33.25L353.63-33.25Q353.63-32.32 353.28-31.52 352.92-30.71 352.31-30.11 351.7-29.52 350.88-29.16 350.07-28.81 349.14-28.81L349.14-28.81Q348.21-28.81 347.39-29.16 346.57-29.52 345.98-30.11 345.38-30.71 345.02-31.52 344.67-32.32 344.67-33.25L344.67-33.25Q344.67-34.16 345.02-34.97 345.38-35.79 345.98-36.39 346.57-36.99 347.39-37.34 348.21-37.7 349.14-37.7L349.14-37.7Q350.07-37.7 350.88-37.34 351.7-36.99 352.31-36.39 352.92-35.79 353.28-34.97 353.63-34.16 353.63-33.25ZM352.48-26.15L352.48 0 345.77 0 345.77-26.15 352.48-26.15ZM371.67 0L364.98 0 355.02-26.15 362.61-26.15 368.32-9.84 374.01-26.15 381.63-26.15 371.67 0ZM392.03-33.25L392.03-33.25Q392.03-32.32 391.67-31.52 391.32-30.71 390.71-30.11 390.1-29.52 389.28-29.16 388.46-28.81 387.54-28.81L387.54-28.81Q386.61-28.81 385.79-29.16 384.97-29.52 384.37-30.11 383.78-30.71 383.42-31.52 383.07-32.32 383.07-33.25L383.07-33.25Q383.07-34.16 383.42-34.97 383.78-35.79 384.37-36.39 384.97-36.99 385.79-37.34 386.61-37.7 387.54-37.7L387.54-37.7Q388.46-37.7 389.28-37.34 390.1-36.99 390.71-36.39 391.32-35.79 391.67-34.97 392.03-34.16 392.03-33.25ZM390.88-26.15L390.88 0 384.17 0 384.17-26.15 390.88-26.15ZM414.12 0L409.07 0Q406.65 0 404.53-0.92 402.4-1.83 400.8-3.43 399.2-5.03 398.29-7.15 397.37-9.28 397.37-11.69L397.37-11.69 397.37-19.46 394.13-19.46 394.13-26.1 397.37-26.1 397.37-36.55 404.01-36.55 404.01-26.1 414.12-26.1 414.12-19.46 404.01-19.46 404.01-11.69Q404.01-10.64 404.4-9.73 404.79-8.81 405.48-8.13 406.16-7.45 407.09-7.04 408.02-6.64 409.07-6.64L409.07-6.64 414.12-6.64 414.12 0ZM427.57 10.01L424.15 9.96 424.15 3.25 427.86 3.3Q428.84 3.3 429.74 2.98 430.65 2.66 431.42 2.1 432.18 1.54 432.77 0.77 433.36 0 433.72-0.9L433.72-0.9Q432.62-0.44 431.49 0.02 430.35 0.49 429.21 0.49L429.21 0.49Q426.79 0.49 424.66-0.37 422.54-1.22 420.94-2.8 419.34-4.37 418.43-6.63 417.51-8.89 417.51-11.69L417.51-11.69 417.51-26.15 424.15-26.15 424.15-11.69Q424.15-10.3 424.55-9.27 424.96-8.23 425.64-7.53 426.32-6.84 427.24-6.49 428.16-6.15 429.21-6.15L429.21-6.15Q430.23-6.15 431.15-6.63 432.06-7.1 432.75-7.89 433.43-8.67 433.82-9.66 434.21-10.64 434.21-11.69L434.21-11.69 434.21-26.15 440.92-26.15 440.92-3.3Q440.9-0.54 439.85 1.88 438.8 4.3 436.98 6.1 435.16 7.91 432.75 8.96 430.33 10.01 427.57 10.01L427.57 10.01ZM495.44-25L495.44 0 488.45 0 488.45-25Q488.45-25.73 488.17-26.37 487.89-27 487.42-27.48 486.94-27.95 486.31-28.22 485.67-28.49 484.94-28.49L484.94-28.49Q484.21-28.49 483.57-28.22 482.94-27.95 482.46-27.48 481.98-27 481.72-26.37 481.45-25.73 481.45-25L481.45-25 481.45 0 474.44 0 474.44-25Q474.44-25.73 474.17-26.37 473.9-27 473.43-27.48 472.95-27.95 472.32-28.22 471.68-28.49 470.95-28.49L470.95-28.49Q470.22-28.49 469.58-28.22 468.95-27.95 468.47-27.48 467.99-27 467.73-26.37 467.46-25.73 467.46-25L467.46-25 467.46 0 460.45 0 460.45-25Q460.45-27.17 461.27-29.09 462.09-31.01 463.51-32.43 464.94-33.86 466.86-34.68 468.78-35.5 470.95-35.5L470.95-35.5Q472.9-35.5 474.71-34.8 476.52-34.11 477.96-32.79L477.96-32.79Q479.4-34.11 481.19-34.8 482.98-35.5 484.94-35.5L484.94-35.5Q487.11-35.5 489.03-34.68 490.94-33.86 492.37-32.43 493.8-31.01 494.62-29.09 495.44-27.17 495.44-25L495.44-25ZM523.58-21.46L511.08-6.4Q511.47-6.27 511.86-6.24 512.25-6.2 512.65-6.2L512.65-6.2Q513.62-6.2 514.53-6.47 515.43-6.74 516.22-7.24 517.02-7.74 517.64-8.46 518.26-9.18 518.65-10.06L518.65-10.06 523.53-5.15Q522.61-3.83 521.4-2.78 520.19-1.73 518.79-1 517.38-0.27 515.83 0.11 514.28 0.49 512.65 0.49L512.65 0.49Q509.89 0.49 507.46-0.54 505.03-1.56 503.21-3.39 501.39-5.22 500.34-7.75 499.29-10.28 499.29-13.31L499.29-13.31Q499.29-16.41 500.34-18.97 501.39-21.53 503.21-23.34 505.03-25.15 507.46-26.15 509.89-27.15 512.65-27.15L512.65-27.15Q514.28-27.15 515.84-26.76 517.41-26.37 518.81-25.63 520.21-24.9 521.43-23.84 522.66-22.78 523.58-21.46L523.58-21.46ZM506.74-9.84L514.5-20.14Q514.04-20.31 513.59-20.36 513.13-20.41 512.65-20.41L512.65-20.41Q511.28-20.41 510.07-19.91 508.86-19.41 507.97-18.48 507.08-17.55 506.57-16.25 506.05-14.94 506.05-13.31L506.05-13.31Q506.05-12.94 506.09-12.48 506.13-12.01 506.21-11.54 506.3-11.06 506.42-10.62 506.54-10.18 506.74-9.84L506.74-9.84ZM549.63-21.46L537.13-6.4Q537.52-6.27 537.91-6.24 538.3-6.2 538.69-6.2L538.69-6.2Q539.67-6.2 540.57-6.47 541.48-6.74 542.27-7.24 543.06-7.74 543.69-8.46 544.31-9.18 544.7-10.06L544.7-10.06 549.58-5.15Q548.65-3.83 547.45-2.78 546.24-1.73 544.83-1 543.43-0.27 541.88 0.11 540.33 0.49 538.69 0.49L538.69 0.49Q535.93 0.49 533.5-0.54 531.08-1.56 529.26-3.39 527.44-5.22 526.39-7.75 525.34-10.28 525.34-13.31L525.34-13.31Q525.34-16.41 526.39-18.97 527.44-21.53 529.26-23.34 531.08-25.15 533.5-26.15 535.93-27.15 538.69-27.15L538.69-27.15Q540.33-27.15 541.89-26.76 543.45-26.37 544.86-25.63 546.26-24.9 547.48-23.84 548.7-22.78 549.63-21.46L549.63-21.46ZM532.78-9.84L540.55-20.14Q540.08-20.31 539.63-20.36 539.18-20.41 538.69-20.41L538.69-20.41Q537.33-20.41 536.12-19.91 534.91-19.41 534.02-18.48 533.13-17.55 532.61-16.25 532.1-14.94 532.1-13.31L532.1-13.31Q532.1-12.94 532.14-12.48 532.17-12.01 532.26-11.54 532.34-11.06 532.47-10.62 532.59-10.18 532.78-9.84L532.78-9.84ZM571.14 0L566.08 0Q563.67 0 561.54-0.92 559.42-1.83 557.82-3.43 556.22-5.03 555.3-7.15 554.39-9.28 554.39-11.69L554.39-11.69 554.39-19.46 551.14-19.46 551.14-26.1 554.39-26.1 554.39-36.55 561.03-36.55 561.03-26.1 571.14-26.1 571.14-19.46 561.03-19.46 561.03-11.69Q561.03-10.64 561.42-9.73 561.81-8.81 562.49-8.13 563.18-7.45 564.11-7.04 565.03-6.64 566.08-6.64L566.08-6.64 571.14-6.64 571.14 0ZM589.22 0L589.22 0 573.99 0 573.99-6.64 589.22-6.64Q589.91-6.64 590.4-7.13 590.88-7.62 590.88-8.3L590.88-8.3Q590.88-9.01 590.4-9.23 589.91-9.45 589.22-9.45L589.22-9.45 582.29-9.45Q580.56-9.45 579.04-10.11 577.53-10.77 576.41-11.9 575.28-13.04 574.64-14.55 573.99-16.06 573.99-17.8L573.99-17.8Q573.99-19.53 574.64-21.04 575.28-22.56 576.41-23.68 577.53-24.8 579.04-25.45 580.56-26.1 582.29-26.1L582.29-26.1 595.79-26.1 595.79-19.46 582.29-19.46Q581.61-19.46 581.12-18.97 580.63-18.48 580.63-17.8L580.63-17.8Q580.63-17.09 581.12-16.59 581.61-16.09 582.29-16.09L582.29-16.09 589.22-16.09Q590.93-16.09 592.45-15.52 593.96-14.94 595.08-13.92 596.21-12.89 596.87-11.45 597.53-10.01 597.53-8.3L597.53-8.3Q597.53-6.57 596.87-5.07 596.21-3.56 595.08-2.43 593.96-1.29 592.45-0.65 590.93 0 589.22 0ZM613.71-24.51L613.71-24.51Q613.71-26.68 614.54-28.59 615.37-30.49 616.8-31.92 618.22-33.35 620.13-34.18 622.03-35.01 624.21-35.01L624.21-35.01 640.27-35.01 640.27-28 624.21-28Q623.47-28 622.84-27.73 622.2-27.47 621.73-26.99 621.25-26.51 620.98-25.88 620.71-25.24 620.71-24.51L620.71-24.51Q620.71-23.78 620.98-23.13 621.25-22.49 621.73-22.01 622.2-21.53 622.84-21.26 623.47-21 624.21-21L624.21-21 631.21-21Q633.38-21 635.3-20.18 637.22-19.36 638.65-17.93 640.07-16.5 640.89-14.59 641.71-12.67 641.71-10.5L641.71-10.5Q641.71-8.33 640.89-6.42 640.07-4.52 638.65-3.09 637.22-1.66 635.3-0.83 633.38 0 631.21 0L631.21 0 615.66 0 615.66-7.01 631.21-7.01Q631.94-7.01 632.58-7.28 633.21-7.54 633.69-8.02 634.17-8.5 634.43-9.13 634.7-9.77 634.7-10.5L634.7-10.5Q634.7-11.23 634.43-11.87 634.17-12.5 633.69-12.98 633.21-13.45 632.58-13.72 631.94-13.99 631.21-13.99L631.21-13.99 624.21-13.99Q622.03-13.99 620.13-14.82 618.22-15.65 616.8-17.08 615.37-18.51 614.54-20.42 613.71-22.34 613.71-24.51ZM653.45-33.25L653.45-33.25Q653.45-32.32 653.1-31.52 652.74-30.71 652.13-30.11 651.52-29.52 650.7-29.16 649.89-28.81 648.96-28.81L648.96-28.81Q648.03-28.81 647.21-29.16 646.39-29.52 645.8-30.11 645.2-30.71 644.84-31.52 644.49-32.32 644.49-33.25L644.49-33.25Q644.49-34.16 644.84-34.97 645.2-35.79 645.8-36.39 646.39-36.99 647.21-37.34 648.03-37.7 648.96-37.7L648.96-37.7Q649.89-37.7 650.7-37.34 651.52-36.99 652.13-36.39 652.74-35.79 653.1-34.97 653.45-34.16 653.45-33.25ZM652.3-26.15L652.3 0 645.59 0 645.59-26.15 652.3-26.15ZM690.63-16.6L690.63 0 683.99 0 683.99-16.6Q683.99-17.29 683.73-17.9 683.48-18.51 683.01-18.97 682.55-19.43 681.94-19.69 681.33-19.95 680.65-19.95L680.65-19.95Q679.96-19.95 679.36-19.69 678.77-19.43 678.31-18.97 677.86-18.51 677.61-17.9 677.35-17.29 677.35-16.6L677.35-16.6 677.35 0 670.68 0 670.68-16.6Q670.68-17.29 670.43-17.9 670.17-18.51 669.71-18.97 669.24-19.43 668.63-19.69 668.02-19.95 667.34-19.95L667.34-19.95Q666.66-19.95 666.06-19.69 665.46-19.43 665.01-18.97 664.56-18.51 664.3-17.9 664.04-17.29 664.04-16.6L664.04-16.6 664.04 0 657.38 0 657.38-26.15 658.99-26.15 660.8-24.15Q662.19-25.32 663.86-25.96 665.53-26.61 667.34-26.61L667.34-26.61Q669.17-26.61 670.92-25.93 672.66-25.24 673.98-23.56L673.98-23.56Q674.59-24.39 675.37-24.98 676.15-25.56 677.02-25.93 677.89-26.29 678.81-26.45 679.74-26.61 680.65-26.61L680.65-26.61Q682.72-26.61 684.54-25.83 686.36-25.05 687.71-23.69 689.07-22.34 689.85-20.51 690.63-18.68 690.63-16.6L690.63-16.6ZM702.2-1.76L702.2 9.96 695.49 9.96 695.49-26.15 697.1-26.15 699.76-23Q700.66-23.85 701.74-24.61 702.81-25.37 703.97-25.92 705.13-26.46 706.38-26.78 707.62-27.1 708.89-27.1L708.89-27.1Q711.65-27.1 714.08-26.11 716.51-25.12 718.33-23.32 720.14-21.51 721.19-18.96 722.24-16.41 722.24-13.31L722.24-13.31Q722.24-10.08 721.19-7.51 720.14-4.93 718.33-3.14 716.51-1.34 714.08-0.39 711.65 0.56 708.89 0.56L708.89 0.56Q708.01 0.56 707.14 0.37 706.28 0.17 705.44-0.16 704.59-0.49 703.78-0.9 702.96-1.32 702.2-1.76L702.2-1.76ZM715.55-13.31L715.55-13.31Q715.55-14.97 715.03-16.28 714.51-17.6 713.6-18.52 712.7-19.43 711.48-19.92 710.26-20.41 708.89-20.41L708.89-20.41Q707.52-20.41 706.31-19.92 705.11-19.43 704.2-18.52 703.3-17.6 702.77-16.28 702.25-14.97 702.25-13.31L702.25-13.31Q702.25-11.72 702.77-10.4 703.3-9.08 704.2-8.15 705.11-7.23 706.31-6.71 707.52-6.2 708.89-6.2L708.89-6.2Q710.26-6.2 711.48-6.71 712.7-7.23 713.6-8.15 714.51-9.08 715.03-10.4 715.55-11.72 715.55-13.31ZM732.64-36.55L732.64 0 725.93 0 725.93-36.55 732.64-36.55ZM745.58-33.25L745.58-33.25Q745.58-32.32 745.23-31.52 744.87-30.71 744.26-30.11 743.65-29.52 742.83-29.16 742.01-28.81 741.09-28.81L741.09-28.81Q740.16-28.81 739.34-29.16 738.52-29.52 737.93-30.11 737.33-30.71 736.97-31.52 736.62-32.32 736.62-33.25L736.62-33.25Q736.62-34.16 736.97-34.97 737.33-35.79 737.93-36.39 738.52-36.99 739.34-37.34 740.16-37.7 741.09-37.7L741.09-37.7Q742.01-37.7 742.83-37.34 743.65-36.99 744.26-36.39 744.87-35.79 745.23-34.97 745.58-34.16 745.58-33.25ZM744.43-26.15L744.43 0 737.72 0 737.72-26.15 744.43-26.15ZM772.36-20.95L772.36-20.95 767.48-16.04Q767.11-17.07 766.48-17.88 765.84-18.7 765.05-19.26 764.25-19.82 763.33-20.12 762.4-20.41 761.42-20.41L761.42-20.41Q760.05-20.41 758.85-19.85 757.64-19.29 756.75-18.27 755.86-17.26 755.34-15.87 754.83-14.48 754.83-12.79L754.83-12.79Q754.83-11.43 755.34-10.23 755.86-9.03 756.75-8.13 757.64-7.23 758.85-6.71 760.05-6.2 761.42-6.2L761.42-6.2Q762.4-6.2 763.3-6.47 764.2-6.74 765-7.24 765.79-7.74 766.41-8.46 767.04-9.18 767.43-10.06L767.43-10.06 772.31-5.15Q771.38-3.83 770.17-2.78 768.97-1.73 767.56-1 766.16-0.27 764.61 0.11 763.06 0.49 761.42 0.49L761.42 0.49Q758.66 0.49 756.23-0.55 753.8-1.59 751.99-3.39 750.17-5.2 749.12-7.62 748.07-10.03 748.07-12.79L748.07-12.79Q748.07-15.8 749.12-18.41 750.17-21.02 751.99-22.96 753.8-24.9 756.23-26.03 758.66-27.15 761.42-27.15L761.42-27.15Q763.06-27.15 764.63-26.73 766.21-26.32 767.63-25.52 769.06-24.73 770.27-23.58 771.48-22.44 772.36-20.95ZM783.46-33.25L783.46-33.25Q783.46-32.32 783.11-31.52 782.76-30.71 782.15-30.11 781.54-29.52 780.72-29.16 779.9-28.81 778.97-28.81L778.97-28.81Q778.04-28.81 777.23-29.16 776.41-29.52 775.81-30.11 775.21-30.71 774.86-31.52 774.5-32.32 774.5-33.25L774.5-33.25Q774.5-34.16 774.86-34.97 775.21-35.79 775.81-36.39 776.41-36.99 777.23-37.34 778.04-37.7 778.97-37.7L778.97-37.7Q779.9-37.7 780.72-37.34 781.54-36.99 782.15-36.39 782.76-35.79 783.11-34.97 783.46-34.16 783.46-33.25ZM782.32-26.15L782.32 0 775.6 0 775.6-26.15 782.32-26.15ZM805.56 0L800.5 0Q798.09 0 795.96-0.92 793.84-1.83 792.24-3.43 790.64-5.03 789.72-7.15 788.81-9.28 788.81-11.69L788.81-11.69 788.81-19.46 785.56-19.46 785.56-26.1 788.81-26.1 788.81-36.55 795.45-36.55 795.45-26.1 805.56-26.1 805.56-19.46 795.45-19.46 795.45-11.69Q795.45-10.64 795.84-9.73 796.23-8.81 796.91-8.13 797.6-7.45 798.53-7.04 799.45-6.64 800.5-6.64L800.5-6.64 805.56-6.64 805.56 0ZM819.01 10.01L815.59 9.96 815.59 3.25 819.3 3.3Q820.28 3.3 821.18 2.98 822.08 2.66 822.85 2.1 823.62 1.54 824.21 0.77 824.79 0 825.16-0.9L825.16-0.9Q824.06-0.44 822.93 0.02 821.79 0.49 820.64 0.49L820.64 0.49Q818.23 0.49 816.1-0.37 813.98-1.22 812.38-2.8 810.78-4.37 809.86-6.63 808.95-8.89 808.95-11.69L808.95-11.69 808.95-26.15 815.59-26.15 815.59-11.69Q815.59-10.3 815.99-9.27 816.39-8.23 817.08-7.53 817.76-6.84 818.68-6.49 819.59-6.15 820.64-6.15L820.64-6.15Q821.67-6.15 822.58-6.63 823.5-7.1 824.18-7.89 824.87-8.67 825.26-9.66 825.65-10.64 825.65-11.69L825.65-11.69 825.65-26.15 832.36-26.15 832.36-3.3Q832.34-0.54 831.29 1.88 830.24 4.3 828.42 6.1 826.6 7.91 824.18 8.96 821.77 10.01 819.01 10.01L819.01 10.01Z" opacity="1" transform="matrix(1,0,0,1,0,0)" fill="#ffffff" class="slogan-text-1" data-fill-palette-color="secondary" id="text-1"></path></svg></g></svg></g></svg></g></svg></g></svg></g><defs></defs></svg><rect width="395.52" height="215.61874798547993" fill="none" stroke="none" visibility="hidden"></rect></g></svg></g></svg>